<mxfile host="app.diagrams.net" modified="2023-09-28T10:05:36.129Z" agent="Mozilla/5.0 (Windows NT 10.0; Win64; x64) AppleWebKit/537.36 (KHTML, like Gecko) Chrome/115.0.0.0 Safari/537.36" etag="IAqn_yNtU-CcA4rogIbd" version="21.8.2" type="device">
  <diagram name="Page-1" id="0783ab3e-0a74-02c8-0abd-f7b4e66b4bec">
    <mxGraphModel dx="956" dy="585" grid="1" gridSize="10" guides="1" tooltips="1" connect="1" arrows="1" fold="1" page="1" pageScale="1" pageWidth="850" pageHeight="1100" background="#ffffff" math="0" shadow="0">
      <root>
        <mxCell id="0" />
        <mxCell id="1" parent="0" />
        <mxCell id="S4JjN2VSRs1OjSqPx1EY-4" value="" style="endArrow=none;html=1;rounded=0;strokeWidth=2;" parent="1" source="S4JjN2VSRs1OjSqPx1EY-5" edge="1">
          <mxGeometry width="50" height="50" relative="1" as="geometry">
            <mxPoint x="760" y="1000" as="sourcePoint" />
            <mxPoint x="760" y="80" as="targetPoint" />
          </mxGeometry>
        </mxCell>
        <mxCell id="S4JjN2VSRs1OjSqPx1EY-6" value="" style="endArrow=none;html=1;rounded=0;strokeWidth=2;" parent="1" target="S4JjN2VSRs1OjSqPx1EY-5" edge="1">
          <mxGeometry width="50" height="50" relative="1" as="geometry">
            <mxPoint x="760" y="1000" as="sourcePoint" />
            <mxPoint x="760" y="80" as="targetPoint" />
          </mxGeometry>
        </mxCell>
        <mxCell id="S4JjN2VSRs1OjSqPx1EY-5" value="&lt;b&gt;REMOTE&lt;br&gt;Repo&lt;/b&gt;" style="shape=cylinder3;whiteSpace=wrap;html=1;boundedLbl=1;backgroundOutline=1;size=15;fillColor=#d5e8d4;strokeColor=#82b366;" parent="1" vertex="1">
          <mxGeometry x="730" y="40" width="60" height="80" as="geometry" />
        </mxCell>
        <mxCell id="S4JjN2VSRs1OjSqPx1EY-7" value="" style="endArrow=none;html=1;rounded=0;strokeWidth=2;" parent="1" target="S4JjN2VSRs1OjSqPx1EY-8" edge="1">
          <mxGeometry width="50" height="50" relative="1" as="geometry">
            <mxPoint x="550" y="1000" as="sourcePoint" />
            <mxPoint x="550" y="80" as="targetPoint" />
            <Array as="points">
              <mxPoint x="550" y="340" />
            </Array>
          </mxGeometry>
        </mxCell>
        <mxCell id="S4JjN2VSRs1OjSqPx1EY-8" value="&lt;b&gt;LOCAL&lt;br&gt;Repo&lt;/b&gt;" style="shape=cylinder3;whiteSpace=wrap;html=1;boundedLbl=1;backgroundOutline=1;size=15;fillColor=#dae8fc;strokeColor=#6c8ebf;gradientColor=none;" parent="1" vertex="1">
          <mxGeometry x="520" y="40" width="60" height="80" as="geometry" />
        </mxCell>
        <mxCell id="S4JjN2VSRs1OjSqPx1EY-9" value="" style="endArrow=none;html=1;rounded=0;strokeWidth=2;" parent="1" edge="1">
          <mxGeometry width="50" height="50" relative="1" as="geometry">
            <mxPoint x="340" y="1000" as="sourcePoint" />
            <mxPoint x="340" y="120" as="targetPoint" />
          </mxGeometry>
        </mxCell>
        <mxCell id="S4JjN2VSRs1OjSqPx1EY-11" value="&lt;b&gt;Staging&lt;br&gt;Area&lt;/b&gt;" style="whiteSpace=wrap;html=1;aspect=fixed;fillColor=#fff2cc;strokeColor=#d6b656;" parent="1" vertex="1">
          <mxGeometry x="300" y="40" width="80" height="80" as="geometry" />
        </mxCell>
        <mxCell id="S4JjN2VSRs1OjSqPx1EY-12" value="" style="endArrow=none;html=1;rounded=0;strokeWidth=2;" parent="1" edge="1">
          <mxGeometry width="50" height="50" relative="1" as="geometry">
            <mxPoint x="40" y="1000" as="sourcePoint" />
            <mxPoint x="40" y="120" as="targetPoint" />
          </mxGeometry>
        </mxCell>
        <mxCell id="S4JjN2VSRs1OjSqPx1EY-13" value="&lt;b&gt;Stash&lt;/b&gt;" style="whiteSpace=wrap;html=1;aspect=fixed;" parent="1" vertex="1">
          <mxGeometry y="40" width="80" height="80" as="geometry" />
        </mxCell>
        <mxCell id="S4JjN2VSRs1OjSqPx1EY-14" value="" style="endArrow=none;html=1;rounded=0;strokeWidth=2;" parent="1" edge="1">
          <mxGeometry width="50" height="50" relative="1" as="geometry">
            <mxPoint x="190" y="1000" as="sourcePoint" />
            <mxPoint x="190" y="120" as="targetPoint" />
          </mxGeometry>
        </mxCell>
        <mxCell id="S4JjN2VSRs1OjSqPx1EY-15" value="&lt;b&gt;Working&lt;br&gt;Area&lt;/b&gt;" style="whiteSpace=wrap;html=1;aspect=fixed;fillColor=#ffe6cc;strokeColor=#d79b00;" parent="1" vertex="1">
          <mxGeometry x="150" y="40" width="80" height="80" as="geometry" />
        </mxCell>
        <mxCell id="S4JjN2VSRs1OjSqPx1EY-16" value="" style="shape=flexArrow;endArrow=classic;html=1;rounded=0;width=10;endSize=7.553333333333334;endWidth=4.666666666666667;fillColor=#dae8fc;strokeColor=#6c8ebf;" parent="1" edge="1">
          <mxGeometry width="50" height="50" relative="1" as="geometry">
            <mxPoint x="400" y="20" as="sourcePoint" />
            <mxPoint x="550" y="20" as="targetPoint" />
          </mxGeometry>
        </mxCell>
        <mxCell id="S4JjN2VSRs1OjSqPx1EY-19" value="&lt;span style=&quot;&quot;&gt;&lt;b&gt;add&lt;/b&gt;&lt;/span&gt;" style="edgeLabel;html=1;align=center;verticalAlign=middle;resizable=0;points=[];labelBackgroundColor=#dae8fc;" parent="S4JjN2VSRs1OjSqPx1EY-16" vertex="1" connectable="0">
          <mxGeometry x="-0.0571" relative="1" as="geometry">
            <mxPoint x="-6" as="offset" />
          </mxGeometry>
        </mxCell>
        <mxCell id="S4JjN2VSRs1OjSqPx1EY-20" value="" style="shape=flexArrow;endArrow=classic;html=1;rounded=0;width=10;endSize=7.553333333333334;endWidth=4.666666666666667;fillColor=#fff2cc;strokeColor=#6c8ebf;" parent="1" edge="1">
          <mxGeometry width="50" height="50" relative="1" as="geometry">
            <mxPoint x="190" y="160" as="sourcePoint" />
            <mxPoint x="340" y="160" as="targetPoint" />
          </mxGeometry>
        </mxCell>
        <mxCell id="S4JjN2VSRs1OjSqPx1EY-21" value="&lt;span style=&quot;&quot;&gt;&lt;b&gt;add&lt;/b&gt;&lt;/span&gt;" style="edgeLabel;html=1;align=center;verticalAlign=middle;resizable=0;points=[];labelBackgroundColor=#fff2cc;" parent="S4JjN2VSRs1OjSqPx1EY-20" vertex="1" connectable="0">
          <mxGeometry x="-0.0571" relative="1" as="geometry">
            <mxPoint x="-6" as="offset" />
          </mxGeometry>
        </mxCell>
        <mxCell id="S4JjN2VSRs1OjSqPx1EY-22" value="" style="shape=flexArrow;endArrow=classic;html=1;rounded=0;width=10;endSize=7.553333333333334;endWidth=4.666666666666667;fillColor=#fff2cc;strokeColor=#6c8ebf;" parent="1" edge="1">
          <mxGeometry width="50" height="50" relative="1" as="geometry">
            <mxPoint x="210" y="20" as="sourcePoint" />
            <mxPoint x="360" y="20" as="targetPoint" />
          </mxGeometry>
        </mxCell>
        <mxCell id="S4JjN2VSRs1OjSqPx1EY-23" value="&lt;span style=&quot;&quot;&gt;&lt;b&gt;add&lt;/b&gt;&lt;/span&gt;" style="edgeLabel;html=1;align=center;verticalAlign=middle;resizable=0;points=[];labelBackgroundColor=#fff2cc;" parent="S4JjN2VSRs1OjSqPx1EY-22" vertex="1" connectable="0">
          <mxGeometry x="-0.0571" relative="1" as="geometry">
            <mxPoint x="-6" as="offset" />
          </mxGeometry>
        </mxCell>
        <mxCell id="S4JjN2VSRs1OjSqPx1EY-24" value="" style="shape=flexArrow;endArrow=classic;html=1;rounded=0;width=10;endSize=7.553333333333334;endWidth=4.666666666666667;fillColor=#dae8fc;strokeColor=#6c8ebf;" parent="1" edge="1">
          <mxGeometry width="50" height="50" relative="1" as="geometry">
            <mxPoint x="340" y="160" as="sourcePoint" />
            <mxPoint x="550" y="160" as="targetPoint" />
          </mxGeometry>
        </mxCell>
        <mxCell id="S4JjN2VSRs1OjSqPx1EY-25" value="&lt;span style=&quot;&quot;&gt;&lt;b&gt;commit&lt;/b&gt;&lt;/span&gt;" style="edgeLabel;html=1;align=center;verticalAlign=middle;resizable=0;points=[];labelBackgroundColor=#dae8fc;" parent="S4JjN2VSRs1OjSqPx1EY-24" vertex="1" connectable="0">
          <mxGeometry x="-0.0571" relative="1" as="geometry">
            <mxPoint x="-6" as="offset" />
          </mxGeometry>
        </mxCell>
        <mxCell id="S4JjN2VSRs1OjSqPx1EY-26" value="" style="shape=flexArrow;endArrow=classic;html=1;rounded=0;width=10;endSize=7.553333333333334;endWidth=4.666666666666667;fillColor=#d5e8d4;strokeColor=#6c8ebf;" parent="1" edge="1">
          <mxGeometry width="50" height="50" relative="1" as="geometry">
            <mxPoint x="590" y="20" as="sourcePoint" />
            <mxPoint x="740" y="20" as="targetPoint" />
          </mxGeometry>
        </mxCell>
        <mxCell id="S4JjN2VSRs1OjSqPx1EY-27" value="&lt;span style=&quot;&quot;&gt;add&lt;/span&gt;" style="edgeLabel;html=1;align=center;verticalAlign=middle;resizable=0;points=[];labelBackgroundColor=#dae8fc;fontStyle=1" parent="S4JjN2VSRs1OjSqPx1EY-26" vertex="1" connectable="0">
          <mxGeometry x="-0.0571" relative="1" as="geometry">
            <mxPoint x="-6" as="offset" />
          </mxGeometry>
        </mxCell>
        <mxCell id="S4JjN2VSRs1OjSqPx1EY-28" value="" style="shape=flexArrow;endArrow=classic;html=1;rounded=0;width=10;endSize=7.553333333333334;endWidth=4.666666666666667;fillColor=#d5e8d4;strokeColor=#6c8ebf;" parent="1" edge="1">
          <mxGeometry width="50" height="50" relative="1" as="geometry">
            <mxPoint x="550" y="160" as="sourcePoint" />
            <mxPoint x="760" y="160" as="targetPoint" />
          </mxGeometry>
        </mxCell>
        <mxCell id="S4JjN2VSRs1OjSqPx1EY-29" value="&lt;b&gt;push&lt;/b&gt;" style="edgeLabel;html=1;align=center;verticalAlign=middle;resizable=0;points=[];labelBackgroundColor=#dae8fc;" parent="S4JjN2VSRs1OjSqPx1EY-28" vertex="1" connectable="0">
          <mxGeometry x="-0.0571" relative="1" as="geometry">
            <mxPoint x="-6" as="offset" />
          </mxGeometry>
        </mxCell>
        <mxCell id="S4JjN2VSRs1OjSqPx1EY-30" value="" style="shape=flexArrow;endArrow=classic;html=1;rounded=0;width=10;endSize=7.553333333333334;endWidth=4.666666666666667;fillColor=#dae8fc;strokeColor=#6c8ebf;" parent="1" edge="1">
          <mxGeometry width="50" height="50" relative="1" as="geometry">
            <mxPoint x="509" y="49.000000000000014" as="sourcePoint" />
            <mxPoint x="399" y="49.67" as="targetPoint" />
          </mxGeometry>
        </mxCell>
        <mxCell id="S4JjN2VSRs1OjSqPx1EY-31" value="&lt;span style=&quot;&quot;&gt;add&lt;/span&gt;" style="edgeLabel;html=1;align=center;verticalAlign=middle;resizable=0;points=[];labelBackgroundColor=#dae8fc;fontStyle=1" parent="S4JjN2VSRs1OjSqPx1EY-30" vertex="1" connectable="0">
          <mxGeometry x="-0.0571" relative="1" as="geometry">
            <mxPoint x="-6" as="offset" />
          </mxGeometry>
        </mxCell>
        <mxCell id="S4JjN2VSRs1OjSqPx1EY-34" value="" style="shape=flexArrow;endArrow=classic;html=1;rounded=0;width=10;endSize=7.553333333333334;endWidth=4.666666666666667;fillColor=#d5e8d4;strokeColor=#6c8ebf;" parent="1" edge="1">
          <mxGeometry width="50" height="50" relative="1" as="geometry">
            <mxPoint x="700" y="39.33" as="sourcePoint" />
            <mxPoint x="620" y="39.33" as="targetPoint" />
          </mxGeometry>
        </mxCell>
        <mxCell id="S4JjN2VSRs1OjSqPx1EY-35" value="&lt;span style=&quot;&quot;&gt;add&lt;/span&gt;" style="edgeLabel;html=1;align=center;verticalAlign=middle;resizable=0;points=[];labelBackgroundColor=#dae8fc;fontStyle=1" parent="S4JjN2VSRs1OjSqPx1EY-34" vertex="1" connectable="0">
          <mxGeometry x="-0.0571" relative="1" as="geometry">
            <mxPoint x="-6" as="offset" />
          </mxGeometry>
        </mxCell>
        <mxCell id="S4JjN2VSRs1OjSqPx1EY-36" value="" style="shape=flexArrow;endArrow=classic;html=1;rounded=0;width=10;endSize=7.553333333333334;endWidth=4.666666666666667;" parent="1" edge="1">
          <mxGeometry width="50" height="50" relative="1" as="geometry">
            <mxPoint x="410" y="180" as="sourcePoint" />
            <mxPoint x="260" y="180" as="targetPoint" />
          </mxGeometry>
        </mxCell>
        <mxCell id="S4JjN2VSRs1OjSqPx1EY-37" value="&lt;span style=&quot;&quot;&gt;restore --staged [1]&lt;/span&gt;" style="edgeLabel;html=1;align=center;verticalAlign=middle;resizable=0;points=[];labelBackgroundColor=none;fontStyle=1" parent="S4JjN2VSRs1OjSqPx1EY-36" vertex="1" connectable="0">
          <mxGeometry x="-0.0571" relative="1" as="geometry">
            <mxPoint x="-6" as="offset" />
          </mxGeometry>
        </mxCell>
        <mxCell id="S4JjN2VSRs1OjSqPx1EY-56" value="" style="shape=flexArrow;endArrow=classic;html=1;rounded=0;width=10;endSize=7.553333333333334;endWidth=4.666666666666667;fillColor=#ffe6cc;strokeColor=#6c8ebf;" parent="1" edge="1">
          <mxGeometry width="50" height="50" relative="1" as="geometry">
            <mxPoint x="190" y="20" as="sourcePoint" />
            <mxPoint x="80" y="20" as="targetPoint" />
          </mxGeometry>
        </mxCell>
        <mxCell id="S4JjN2VSRs1OjSqPx1EY-57" value="&lt;span style=&quot;&quot;&gt;add&lt;/span&gt;" style="edgeLabel;html=1;align=center;verticalAlign=middle;resizable=0;points=[];labelBackgroundColor=#ffe6cc;fontStyle=1" parent="S4JjN2VSRs1OjSqPx1EY-56" vertex="1" connectable="0">
          <mxGeometry x="-0.0571" relative="1" as="geometry">
            <mxPoint x="-6" as="offset" />
          </mxGeometry>
        </mxCell>
        <mxCell id="S4JjN2VSRs1OjSqPx1EY-58" value="" style="shape=flexArrow;endArrow=classic;html=1;rounded=0;width=10;endSize=7.553333333333334;endWidth=4.666666666666667;fillColor=#ffe6cc;strokeColor=#6c8ebf;" parent="1" edge="1">
          <mxGeometry width="50" height="50" relative="1" as="geometry">
            <mxPoint x="760" y="260" as="sourcePoint" />
            <mxPoint x="190" y="260" as="targetPoint" />
          </mxGeometry>
        </mxCell>
        <mxCell id="S4JjN2VSRs1OjSqPx1EY-59" value="&lt;span style=&quot;&quot;&gt;pull&lt;/span&gt;" style="edgeLabel;html=1;align=center;verticalAlign=middle;resizable=0;points=[];labelBackgroundColor=#ffe6cc;fontStyle=1" parent="S4JjN2VSRs1OjSqPx1EY-58" vertex="1" connectable="0">
          <mxGeometry x="-0.0571" relative="1" as="geometry">
            <mxPoint x="-6" as="offset" />
          </mxGeometry>
        </mxCell>
        <mxCell id="S4JjN2VSRs1OjSqPx1EY-60" value="&lt;span style=&quot;&quot;&gt;clone&amp;nbsp;&lt;/span&gt;" style="edgeLabel;html=1;align=center;verticalAlign=middle;resizable=0;points=[];labelBackgroundColor=#ffe6cc;fontStyle=1" parent="1" vertex="1" connectable="0">
          <mxGeometry x="495.33333333333326" y="190" as="geometry">
            <mxPoint x="223" y="-11" as="offset" />
          </mxGeometry>
        </mxCell>
        <mxCell id="S4JjN2VSRs1OjSqPx1EY-61" value="" style="shape=flexArrow;endArrow=classic;html=1;rounded=0;width=10;endSize=7.553333333333334;endWidth=4.666666666666667;fillColor=#dae8fc;strokeColor=#6c8ebf;" parent="1" edge="1">
          <mxGeometry width="50" height="50" relative="1" as="geometry">
            <mxPoint x="760" y="180" as="sourcePoint" />
            <mxPoint x="550" y="181" as="targetPoint" />
          </mxGeometry>
        </mxCell>
        <mxCell id="S4JjN2VSRs1OjSqPx1EY-62" value="&lt;span style=&quot;&quot;&gt;fetch&lt;/span&gt;" style="edgeLabel;html=1;align=center;verticalAlign=middle;resizable=0;points=[];labelBackgroundColor=#dae8fc;fontStyle=1" parent="S4JjN2VSRs1OjSqPx1EY-61" vertex="1" connectable="0">
          <mxGeometry x="-0.0571" relative="1" as="geometry">
            <mxPoint x="-6" as="offset" />
          </mxGeometry>
        </mxCell>
        <mxCell id="S4JjN2VSRs1OjSqPx1EY-64" value="" style="shape=flexArrow;endArrow=classic;startArrow=classic;html=1;rounded=0;startWidth=10;startSize=5.113333333333333;endWidth=10;endSize=6.666666666666667;fillColor=#FFCCFF;strokeColor=#FFCCFF;" parent="1" edge="1">
          <mxGeometry width="100" height="100" relative="1" as="geometry">
            <mxPoint x="190" y="400" as="sourcePoint" />
            <mxPoint x="340" y="400" as="targetPoint" />
            <Array as="points">
              <mxPoint x="220" y="400" />
            </Array>
          </mxGeometry>
        </mxCell>
        <mxCell id="S4JjN2VSRs1OjSqPx1EY-67" value="&lt;b&gt;diff&lt;/b&gt;" style="edgeLabel;html=1;align=center;verticalAlign=middle;resizable=0;points=[];labelBackgroundColor=#ffccff;" parent="S4JjN2VSRs1OjSqPx1EY-64" vertex="1" connectable="0">
          <mxGeometry x="-0.0578" y="2" relative="1" as="geometry">
            <mxPoint y="2" as="offset" />
          </mxGeometry>
        </mxCell>
        <mxCell id="S4JjN2VSRs1OjSqPx1EY-68" value="" style="shape=flexArrow;endArrow=classic;startArrow=classic;html=1;rounded=0;startWidth=10;startSize=5.113333333333333;endWidth=10;endSize=6.666666666666667;fillColor=#FFCCFF;strokeColor=#FFCCFF;" parent="1" edge="1">
          <mxGeometry width="100" height="100" relative="1" as="geometry">
            <mxPoint x="340" y="400" as="sourcePoint" />
            <mxPoint x="550" y="400" as="targetPoint" />
            <Array as="points">
              <mxPoint x="370" y="400" />
            </Array>
          </mxGeometry>
        </mxCell>
        <mxCell id="S4JjN2VSRs1OjSqPx1EY-69" value="&lt;b&gt;diff --staged&lt;/b&gt;" style="edgeLabel;html=1;align=center;verticalAlign=middle;resizable=0;points=[];labelBackgroundColor=#ffccff;" parent="S4JjN2VSRs1OjSqPx1EY-68" vertex="1" connectable="0">
          <mxGeometry x="-0.0578" y="2" relative="1" as="geometry">
            <mxPoint y="2" as="offset" />
          </mxGeometry>
        </mxCell>
        <mxCell id="S4JjN2VSRs1OjSqPx1EY-70" value="" style="shape=flexArrow;endArrow=classic;html=1;rounded=0;width=10;endSize=7.553333333333334;endWidth=4.666666666666667;fillColor=#ffe6cc;strokeColor=#6c8ebf;" parent="1" edge="1">
          <mxGeometry width="50" height="50" relative="1" as="geometry">
            <mxPoint x="550" y="140" as="sourcePoint" />
            <mxPoint x="190" y="140" as="targetPoint" />
          </mxGeometry>
        </mxCell>
        <mxCell id="S4JjN2VSRs1OjSqPx1EY-71" value="init" style="edgeLabel;html=1;align=center;verticalAlign=middle;resizable=0;points=[];labelBackgroundColor=#ffe6cc;fontStyle=1" parent="S4JjN2VSRs1OjSqPx1EY-70" vertex="1" connectable="0">
          <mxGeometry x="-0.0571" relative="1" as="geometry">
            <mxPoint x="-6" as="offset" />
          </mxGeometry>
        </mxCell>
        <mxCell id="S4JjN2VSRs1OjSqPx1EY-74" value="" style="shape=flexArrow;endArrow=classic;startArrow=classic;html=1;rounded=0;startWidth=10;startSize=4.446666666666666;endWidth=10;endSize=7.78;fillColor=#FFCCFF;strokeColor=#FFCCFF;" parent="1" edge="1">
          <mxGeometry width="100" height="100" relative="1" as="geometry">
            <mxPoint x="190" y="420" as="sourcePoint" />
            <mxPoint x="550" y="420" as="targetPoint" />
            <Array as="points" />
          </mxGeometry>
        </mxCell>
        <mxCell id="S4JjN2VSRs1OjSqPx1EY-75" value="&lt;b&gt;diff HEAD&amp;nbsp; &amp;nbsp; &amp;nbsp; &amp;nbsp;&amp;nbsp;&lt;font style=&quot;font-size: 8px;&quot;&gt;(WRK &amp;amp; STG against LREPO)&lt;/font&gt;&lt;/b&gt;" style="edgeLabel;html=1;align=center;verticalAlign=middle;resizable=0;points=[];labelBackgroundColor=#ffccff;" parent="S4JjN2VSRs1OjSqPx1EY-74" vertex="1" connectable="0">
          <mxGeometry x="-0.0578" y="2" relative="1" as="geometry">
            <mxPoint y="2" as="offset" />
          </mxGeometry>
        </mxCell>
        <mxCell id="rYEb6xO-xIZPqjvUM0q0-1" value="&lt;font style=&quot;font-size: 10px;&quot;&gt;[1] - will remove from STG, but not overwrite WRK&lt;/font&gt;" style="text;html=1;strokeColor=none;fillColor=none;align=center;verticalAlign=middle;whiteSpace=wrap;rounded=0;" vertex="1" parent="1">
          <mxGeometry x="30" y="790" width="270" height="10" as="geometry" />
        </mxCell>
        <mxCell id="rYEb6xO-xIZPqjvUM0q0-5" value="" style="shape=flexArrow;endArrow=classic;html=1;rounded=0;width=10;endSize=7.553333333333334;endWidth=4.666666666666667;fillColor=#ffe6cc;strokeColor=#6c8ebf;" edge="1" parent="1">
          <mxGeometry width="50" height="50" relative="1" as="geometry">
            <mxPoint x="550.3299999999999" y="200" as="sourcePoint" />
            <mxPoint x="190" y="200" as="targetPoint" />
          </mxGeometry>
        </mxCell>
        <mxCell id="rYEb6xO-xIZPqjvUM0q0-6" value="restore" style="edgeLabel;html=1;align=center;verticalAlign=middle;resizable=0;points=[];labelBackgroundColor=#ffe6cc;fontStyle=1" vertex="1" connectable="0" parent="rYEb6xO-xIZPqjvUM0q0-5">
          <mxGeometry x="-0.0571" relative="1" as="geometry">
            <mxPoint x="-6" as="offset" />
          </mxGeometry>
        </mxCell>
      </root>
    </mxGraphModel>
  </diagram>
</mxfile>
